<?xml version="1.0" encoding="utf-8"?>
<!-- Generator: Adobe Illustrator 26.3.1, SVG Export Plug-In . SVG Version: 6.00 Build 0)  -->
<svg version="1.1" id="Capa_1" xmlns="http://www.w3.org/2000/svg" xmlns:xlink="http://www.w3.org/1999/xlink" x="0px" y="0px"
	 viewBox="0 0 321.53 215.49" style="enable-background:new 0 0 321.53 215.49;" xml:space="preserve">
<style type="text/css">
	.st0{fill:#339933;}
	.st1{fill:#339A33;}
</style>
<g>
	<path class="st0" d="M102.09,207c-4.32,1.38-8.61,2.78-13.14,3.81c-1.51,0.34-2.61,0.35-3.93-0.22
		c-4.99-2.14-10.03-4.22-15.05-6.32c-2.48-0.75-4.56-1.95-6.74-3.02c-13.05-6.9-23.91-15.28-33.46-24.55
		c-1.91-2.2-4.13-4.25-5.97-6.48c-0.66-0.86-1.47-1.66-2.14-2.52c-5.27-6.1-8.86-12.74-12.42-19.39c-1.22-2.61-2.21-5.26-3.45-7.87
		c-1.02-3.57-2.41-7.09-3.17-10.71c-0.71-2.86-0.84-5.78-1.48-8.65c-0.84-14.2,0.28-28.25,6.52-41.9c0.6-1.32,1.1-2.65,1.93-3.91
		c2.97-6.24,7.2-12.08,11.48-17.9c5.74-6.72,11.98-13.17,19.39-19.07c8.35-6.65,17.58-12.56,27.81-17.72
		c2.92-1.48,5.87-2.92,8.95-4.24c8.11-3.56,16.7-6.45,25.55-8.96c5.29-1.16,10.4-2.7,15.82-3.58c2.68-0.45,5.31-1.06,8.03-1.43
		c5.1-0.88,10.32-0.98,15.51-1.34c0,0-0.01,0.01-0.01,0.01c4.35-0.18,8.71-0.37,13.06-0.55c4.36,0.01,8.72,0.02,13.07,0.03
		c8.79,0.44,17.49,1.38,26.18,2.36c2.25-0.54,4.27,0.25,6.32,0.64c2.2,0.42,4.43,0.78,6.62,1.23c5.02,1.48,10.39,2.29,15.28,4.04
		c8.01,2.28,15.61,5.12,22.86,8.42c1.82,0.79,3.59,1.65,5.4,2.45c2.81,1.62,5.9,2.96,8.73,4.56c11.36,6.6,21.66,13.91,30.26,22.37
		c0.63,0.62,1.23,1.26,1.95,1.84c5.27,5.51,9.93,11.27,13.98,17.27c4.44,7.03,8.02,14.26,10.34,21.79c0.56,1.61,1.06,3.23,1.53,4.86
		c2.5,9.42,3.49,18.9,2.48,28.47c-1.41,2.07-1.32,4.37-1.6,6.55c-0.6,4.55-2.16,8.94-3.63,13.35c-2.05,5.45-4.57,10.79-7.88,15.93
		c-2.23,3.51-4.56,7-7.27,10.34c-2.87,3.23-5.55,6.55-8.6,9.7c-1.42,1.23-2.75,2.51-4.08,3.78c-2.3,1.81-4.21,3.84-6.57,5.62
		c-5.96,5.2-13.13,9.52-20.31,13.83c-2.99,1.61-6.13,3.09-9.12,4.7c-1.28,0.77-2.81,1.27-4.18,1.95c-8.25,3.73-16.8,7.06-25.97,9.56
		c-0.33,0.02-0.66-0.01-0.97-0.09c-1.22-0.55-1.37-1.25-0.56-2.08c0.2-0.17,0.43-0.33,0.67-0.48c1.71-1.58,1.57-2.14-1.13-2.98
		c-4.18-1.3-8.64-1.95-13.08-2.64c-2.03-0.31-4.07-0.56-6.09-0.91c-6.74-0.84-13.5-1.64-20.23-2.49c-6.09-0.77-8.24-2.06-9.51-6.35
		c-0.92-3.09-1.47-6.27-1.35-9.38c0.31-7.92-1.1-15.79-0.72-23.7c0.05-1.07,0.1-2.15-0.41-3.19c-0.32-1.21-0.32-2.43-0.26-3.66
		c0.61-6.21,0.66-12.49,4.62-18.28c3.42-4.47,8.3-7.96,14.32-10.71c3.81-1.74,3.92-1.77,7.66,0.22c0.71,0.41,1.49,0.76,2.25,1.11
		c3.33,1.73,6.84,3.25,10.52,4.58c4.5,1.44,8.97,2.93,14.02,3.14c4.23,0.15,8.36-0.31,12.43-1.05c10.4-2.19,18.38-6.23,21.52-13.99
		c0.3-0.74,0.43-1.51,0.41-2.28c0.39-3.9-0.86-7.48-4.11-10.67c-1.42-1.39-1.25-2.58,0.13-3.98c3.64-3.69,5.64-7.77,5.27-12.33
		c-0.85-9.07-8.11-14.88-19.22-18.68c-3.94-1.35-4.3-1.5-3.42-4.53c0.77-2.65,0.07-5.17-0.58-7.73c-0.62-2.21-1.66-4.32-3.14-6.32
		c-2.28-3.51-5.88-6.28-10-8.74c-5.19-2.89-11.13-4.57-17.56-5.47c-5.3-0.35-10.56-0.42-15.75,0.63c-1.89,0.38-3.83,0.72-5.43-0.51
		c-6.61-6.03-14.96-9.71-26.11-9.58c-11.98,0.18-20.59,4.46-26.34,11.51c-2.34,2.86-4.55,4.24-9.09,2.91
		c-0.48-0.14-1.07-0.05-1.62-0.06c-4.92-0.01-9.86-0.16-14.6,1.07c-11.63,3.27-18.94,9.14-21.48,17.86c0.02,4.02-1.89,6.77-7.9,8.27
		c-5.2,1.29-8.8,4.37-11.09,8.08c-3.04,4.93-1.97,9.45,2.29,13.73c3.24,3.26,3.27,3.24-0.62,6.08c-9.33,6.4-9.39,15.17-0.06,21.6
		c3.63,2.5,7.8,4.42,12.82,5.26c1.13,0.19,2.23,0.44,3.35,0.65c3.81,0.45,7.61,1,11.5,0.57c0.31-0.08,0.64-0.14,0.97-0.18
		c3.46-0.21,6.71-1,9.96-1.78c1.4-0.42,2.86-0.8,4.03-1.49c2.6-1.55,5.26-1.62,8.08-0.38c4.07,1.35,8.34,2.39,12.44,3.71
		c7.42,2.11,14.1,4.98,19.11,9.51c1.75,1.62,3.03,3.41,3.71,5.36c1.99,5.76,3.58,11.57,3.56,17.55c-0.02,5.93,0.08,11.85-0.03,17.78
		c-0.11,5.93-0.67,11.83-2.59,17.63c-1.19,3.59-1.7,3.9-7.06,3.97c-9.26,0.11-18.52,0.31-27.42,2.44
		c-3.64,0.67-7.23,1.45-10.87,2.12C104.83,207,103.47,206.96,102.09,207z"/>
	<path class="st1" d="M149.79,121.16c1.35,0.29,1.5,0.83,0.99,1.73c-0.84,1.49-1.62,3.01-2.18,4.56c-0.73,2.02-2.12,2.48-4.62,1.33
		c-0.52-0.24-1.22-0.28-1.84-0.42c-3.99-1.33-7.98-2.67-11.97-4c-1.61-1.26-4.45-1.45-5.54-3.16c0.88-1.23,2.81-1.39,4.22-2.07
		c4.37-2.42,8.64-1.65,12.87,0.2C144.23,120.34,147.32,120.08,149.79,121.16z"/>
	<path class="st0" d="M168.23,133.55c-0.27,0.12-0.57,0.21-0.82,0.35c-5.47,3.2-5.53,3.21-6.98-1.79c-0.92-3.19-0.73-6.4,0.01-9.6
		c0.26-1.14,0.89-1.92,2.69-2.24c1.97-0.35,3.85-0.97,5.77-1.48c1.71,0.34,2.55,1.45,3.84,2.17c1.59,1.17,3.31,2.21,5.19,3.16
		c2.34,1.18,2.41,1.83,0.41,3.32c-1.48,1.11-2.82,2.37-5.03,2.85C171.46,131.26,169.69,132.29,168.23,133.55z"/>
</g>
</svg>
