<?xml version="1.0" encoding="utf-8"?>
<!-- Generator: Adobe Illustrator 26.3.1, SVG Export Plug-In . SVG Version: 6.00 Build 0)  -->
<svg version="1.1" id="Capa_1" xmlns="http://www.w3.org/2000/svg" xmlns:xlink="http://www.w3.org/1999/xlink" x="0px" y="0px"
	 viewBox="0 0 665.5 266.5" style="enable-background:new 0 0 665.5 266.5;" xml:space="preserve">
<style type="text/css">
	.st0{fill:#339933;}
	.st1{fill:#339A33;}
	.st2{font-family:'Broadway';}
	.st3{font-size:88.0823px;}
	.st4{font-size:71.4064px;}
	.st5{font-size:75.5475px;}
	.st6{font-size:80.229px;}
</style>
<g>
	<path class="st0" d="M80.4,257c-3.4,1.4-6.8,2.8-10.3,3.8c-1.2,0.3-2,0.4-3.1-0.2c-3.9-2.1-7.9-4.2-11.9-6.3c-2-0.8-3.6-1.9-5.3-3
		c-10.2-6.9-18.8-15.3-26.3-24.6c-1.5-2.2-3.2-4.2-4.7-6.5c-0.6-0.9-1.2-1.7-1.7-2.5c-4.2-6.1-7-12.7-9.7-19.4
		c-1-2.6-1.8-5.3-2.8-7.9c-0.8-3.6-1.9-7.1-2.5-10.7c-0.6-2.9-0.6-5.8-1.2-8.6c-0.6-14.2,0.2-28.2,5.1-41.9c0.5-1.3,0.9-2.7,1.5-3.9
		c2.4-6.2,5.7-12.1,9-17.9c4.5-6.7,9.4-13.2,15.2-19.1c6.5-6.7,13.8-12.6,21.8-17.7c2.3-1.5,4.6-2.9,7-4.2c6.4-3.6,13.1-6.4,20-9
		c4.2-1.2,8.2-2.7,12.4-3.6c2.1-0.5,4.2-1.1,6.3-1.4c4-0.9,8.1-1,12.2-1.3l0,0c3.5-0.2,6.8-0.4,10.3-0.5c3.5,0,6.8,0,10.3,0
		C139.2,51,146,52,152.9,53c1.7-0.5,3.4,0.2,5,0.6c1.7,0.4,3.5,0.8,5.2,1.2c3.9,1.5,8.2,2.3,12,4c6.3,2.3,12.3,5.1,18,8.4
		c1.4,0.8,2.8,1.6,4.2,2.4c2.2,1.6,4.6,3,6.8,4.6c9,6.6,17.1,13.9,23.8,22.4c0.5,0.6,0.9,1.3,1.6,1.8c4.2,5.5,7.8,11.3,11,17.3
		c3.5,7,6.3,14.3,8.1,21.8c0.5,1.6,0.9,3.2,1.2,4.9c2,9.4,2.8,18.9,2,28.5c-1.1,2.1-1,4.4-1.3,6.6c-0.5,4.6-1.7,8.9-2.8,13.4
		c-1.6,5.4-3.6,10.8-6.2,15.9c-1.7,3.5-3.6,7-5.7,10.3c-2.3,3.2-4.3,6.6-6.8,9.7c-1.1,1.2-2.2,2.5-3.2,3.8c-1.8,1.8-3.3,3.8-5.2,5.6
		c-4.7,5.2-10.3,9.5-16,13.8c-2.4,1.6-4.8,3.1-7.2,4.7c-1,0.8-2.2,1.3-3.3,1.9c-6.4,3.7-13.2,7.1-20.4,9.6c-0.2,0-0.6,0-0.8-0.1
		c-0.9-0.5-1.1-1.2-0.5-2.1c0.2-0.2,0.3-0.3,0.6-0.5c1.3-1.6,1.3-2.1-0.9-3c-3.3-1.3-6.8-2-10.3-2.6c-1.6-0.3-3.2-0.6-4.8-0.9
		c-5.3-0.8-10.6-1.6-15.9-2.5c-4.8-0.8-6.4-2.1-7.5-6.3c-0.7-3.1-1.2-6.3-1.1-9.4c0.2-7.9-0.9-15.8-0.6-23.7
		c0.1-1.1,0.1-2.1-0.3-3.2c-0.2-1.2-0.2-2.4-0.2-3.7c0.5-6.2,0.6-12.5,3.6-18.3c2.7-4.5,6.5-8,11.2-10.7c3-1.7,3.1-1.8,6.1,0.2
		c0.6,0.4,1.2,0.8,1.7,1.1c2.6,1.7,5.3,3.2,8.3,4.6c3.5,1.4,7.1,2.9,11,3.1c3.3,0.1,6.6-0.3,9.7-1.1c8.2-2.2,14.5-6.2,16.9-14
		c0.2-0.7,0.3-1.5,0.3-2.3c0.3-3.9-0.7-7.5-3.2-10.7c-1.1-1.4-0.9-2.6,0.1-4c2.8-3.7,4.4-7.8,4.2-12.3c-0.7-9.1-6.4-14.9-15.1-18.7
		c-3.1-1.3-3.4-1.5-2.7-4.5c0.6-2.7,0.1-5.2-0.5-7.7c-0.5-2.2-1.3-4.3-2.4-6.3c-1.8-3.5-4.6-6.3-7.9-8.7c-4.1-2.9-8.7-4.6-13.8-5.5
		c-4.2-0.3-8.3-0.4-12.4,0.6c-1.5,0.4-3,0.7-4.2-0.5c-5.2-6-11.8-9.7-20.5-9.6c-9.4,0.2-16.2,4.5-20.7,11.5
		c-1.8,2.9-3.6,4.2-7.2,2.9c-0.4-0.1-0.9-0.1-1.3-0.1c-3.9,0-7.8-0.2-11.5,1.1c-9.1,3.3-14.9,9.1-16.9,17.9c0,4-1.5,6.8-6.2,8.3
		c-4.1,1.3-6.9,4.4-8.7,8.1c-2.4,4.9-1.6,9.4,1.8,13.7c2.5,3.3,2.6,3.2-0.5,6.1c-7.3,6.4-7.4,15.2-0.1,21.6
		c2.8,2.5,6.1,4.4,10.1,5.3c0.9,0.2,1.7,0.4,2.6,0.6c3,0.4,6,1,9,0.6c0.2-0.1,0.5-0.1,0.8-0.2c2.8-0.2,5.3-1,7.9-1.8
		c1.1-0.4,2.3-0.8,3.1-1.5c2-1.5,4.2-1.6,6.4-0.4c3.2,1.4,6.5,2.4,9.7,3.7c5.8,2.1,11.1,5,15,9.5c1.4,1.6,2.4,3.4,2.9,5.4
		c1.6,5.8,2.8,11.6,2.8,17.6c0,5.9,0.1,11.9,0,17.8c-0.1,5.9-0.6,11.8-2,17.6c-0.9,3.6-1.3,3.9-5.6,4c-7.3,0.1-14.5,0.3-21.5,2.4
		c-2.8,0.7-5.7,1.5-8.6,2.1C82.5,257,81.5,257,80.4,257z"/>
	<path class="st1" d="M117.9,171.2c1.1,0.3,1.2,0.8,0.8,1.7c-0.6,1.5-1.3,3-1.7,4.6c-0.6,2-1.7,2.5-3.6,1.3
		c-0.4-0.2-0.9-0.3-1.4-0.4c-3.1-1.3-6.3-2.7-9.4-4c-1.3-1.3-3.5-1.4-4.3-3.2c0.7-1.2,2.2-1.4,3.3-2.1c3.5-2.4,6.8-1.7,10.1,0.2
		C113.5,170.3,115.9,170.1,117.9,171.2z"/>
	<path class="st0" d="M132.3,183.6c-0.2,0.1-0.5,0.2-0.6,0.4c-4.3,3.2-4.3,3.2-5.5-1.8c-0.7-3.2-0.6-6.4,0-9.6
		c0.2-1.1,0.7-1.9,2.1-2.2c1.6-0.4,3.1-1,4.6-1.5c1.3,0.3,2,1.5,3,2.2c1.3,1.2,2.6,2.2,4.1,3.2c1.8,1.2,1.9,1.8,0.3,3.3
		c-1.2,1.1-2.2,2.4-3.9,2.9C134.9,181.3,133.5,182.3,132.3,183.6z"/>
</g>
<text transform="matrix(1.0684 0 0 1 343 65.1509)" class="st2 st3">Like</text>
<text transform="matrix(1.6396 0 0 1 386.0625 199.2891)" class="st2 st4">at</text>
<text transform="matrix(1.1202 0 0 1 323.543 261.3418)" class="st2 st5">Home</text>
<text transform="matrix(1.0609 0 0 1 239.999 136.0986)" class="st2 st6">Camping</text>
</svg>
